<mxfile host="app.diagrams.net" agent="Mozilla/5.0 (Windows NT 10.0; Win64; x64) AppleWebKit/537.36 (KHTML, like Gecko) Chrome/134.0.0.0 Safari/537.36" version="26.2.12">
  <diagram id="cvoqNfKAAr7Tn1nT_T-s" name="Página-1">
    <mxGraphModel dx="1428" dy="754" grid="1" gridSize="10" guides="1" tooltips="1" connect="1" arrows="1" fold="1" page="1" pageScale="1" pageWidth="827" pageHeight="1169" math="0" shadow="0">
      <root>
        <mxCell id="0" />
        <mxCell id="1" parent="0" />
        <mxCell id="zV4_AlX7Fqx7qcagxNKW-1" value="ReprodutorMusical" style="swimlane;fontStyle=1;align=center;verticalAlign=top;childLayout=stackLayout;horizontal=1;startSize=30;horizontalStack=0;resizeParent=1;resizeParentMax=0;resizeLast=0;collapsible=1;marginBottom=0;whiteSpace=wrap;html=1;" parent="1" vertex="1">
          <mxGeometry x="10" y="400" width="240" height="166" as="geometry">
            <mxRectangle x="10" y="560" width="150" height="30" as="alternateBounds" />
          </mxGeometry>
        </mxCell>
        <mxCell id="zV4_AlX7Fqx7qcagxNKW-2" value="-Musica[ ] musicas&amp;nbsp;" style="text;strokeColor=none;fillColor=none;align=left;verticalAlign=top;spacingLeft=4;spacingRight=4;overflow=hidden;rotatable=0;points=[[0,0.5],[1,0.5]];portConstraint=eastwest;whiteSpace=wrap;html=1;" parent="zV4_AlX7Fqx7qcagxNKW-1" vertex="1">
          <mxGeometry y="30" width="240" height="30" as="geometry" />
        </mxCell>
        <mxCell id="zV4_AlX7Fqx7qcagxNKW-3" value="" style="line;strokeWidth=1;fillColor=none;align=left;verticalAlign=middle;spacingTop=-1;spacingLeft=3;spacingRight=3;rotatable=0;labelPosition=right;points=[];portConstraint=eastwest;strokeColor=inherit;" parent="zV4_AlX7Fqx7qcagxNKW-1" vertex="1">
          <mxGeometry y="60" width="240" height="4" as="geometry" />
        </mxCell>
        <mxCell id="zV4_AlX7Fqx7qcagxNKW-6" value="+ tocar(): void" style="text;strokeColor=none;fillColor=none;align=left;verticalAlign=top;spacingLeft=4;spacingRight=4;overflow=hidden;rotatable=0;points=[[0,0.5],[1,0.5]];portConstraint=eastwest;whiteSpace=wrap;html=1;" parent="zV4_AlX7Fqx7qcagxNKW-1" vertex="1">
          <mxGeometry y="64" width="240" height="30" as="geometry" />
        </mxCell>
        <mxCell id="zV4_AlX7Fqx7qcagxNKW-4" value="+ pausar(): void" style="text;strokeColor=none;fillColor=none;align=left;verticalAlign=top;spacingLeft=4;spacingRight=4;overflow=hidden;rotatable=0;points=[[0,0.5],[1,0.5]];portConstraint=eastwest;whiteSpace=wrap;html=1;" parent="zV4_AlX7Fqx7qcagxNKW-1" vertex="1">
          <mxGeometry y="94" width="240" height="30" as="geometry" />
        </mxCell>
        <mxCell id="zV4_AlX7Fqx7qcagxNKW-16" value="+ selecionarMusica(String Musica): void" style="text;strokeColor=none;fillColor=none;align=left;verticalAlign=top;spacingLeft=4;spacingRight=4;overflow=hidden;rotatable=0;points=[[0,0.5],[1,0.5]];portConstraint=eastwest;whiteSpace=wrap;html=1;" parent="zV4_AlX7Fqx7qcagxNKW-1" vertex="1">
          <mxGeometry y="124" width="240" height="42" as="geometry" />
        </mxCell>
        <mxCell id="zV4_AlX7Fqx7qcagxNKW-17" value="AparelhoTelefônico" style="swimlane;fontStyle=1;align=center;verticalAlign=top;childLayout=stackLayout;horizontal=1;startSize=26;horizontalStack=0;resizeParent=1;resizeParentMax=0;resizeLast=0;collapsible=1;marginBottom=0;whiteSpace=wrap;html=1;" parent="1" vertex="1">
          <mxGeometry x="330" y="400" width="190" height="150" as="geometry">
            <mxRectangle x="280" y="560" width="150" height="30" as="alternateBounds" />
          </mxGeometry>
        </mxCell>
        <mxCell id="zV4_AlX7Fqx7qcagxNKW-18" value="ListaContato [ ] contatos" style="text;strokeColor=none;fillColor=none;align=left;verticalAlign=top;spacingLeft=4;spacingRight=4;overflow=hidden;rotatable=0;points=[[0,0.5],[1,0.5]];portConstraint=eastwest;whiteSpace=wrap;html=1;" parent="zV4_AlX7Fqx7qcagxNKW-17" vertex="1">
          <mxGeometry y="26" width="190" height="26" as="geometry" />
        </mxCell>
        <mxCell id="zV4_AlX7Fqx7qcagxNKW-19" value="" style="line;strokeWidth=1;fillColor=none;align=left;verticalAlign=middle;spacingTop=-1;spacingLeft=3;spacingRight=3;rotatable=0;labelPosition=right;points=[];portConstraint=eastwest;strokeColor=inherit;" parent="zV4_AlX7Fqx7qcagxNKW-17" vertex="1">
          <mxGeometry y="52" width="190" height="8" as="geometry" />
        </mxCell>
        <mxCell id="zV4_AlX7Fqx7qcagxNKW-20" value="+ ligar(String numero): String" style="text;strokeColor=none;fillColor=none;align=left;verticalAlign=top;spacingLeft=4;spacingRight=4;overflow=hidden;rotatable=0;points=[[0,0.5],[1,0.5]];portConstraint=eastwest;whiteSpace=wrap;html=1;" parent="zV4_AlX7Fqx7qcagxNKW-17" vertex="1">
          <mxGeometry y="60" width="190" height="30" as="geometry" />
        </mxCell>
        <mxCell id="zV4_AlX7Fqx7qcagxNKW-21" value="+ atender(): void" style="text;strokeColor=none;fillColor=none;align=left;verticalAlign=top;spacingLeft=4;spacingRight=4;overflow=hidden;rotatable=0;points=[[0,0.5],[1,0.5]];portConstraint=eastwest;whiteSpace=wrap;html=1;" parent="zV4_AlX7Fqx7qcagxNKW-17" vertex="1">
          <mxGeometry y="90" width="190" height="30" as="geometry" />
        </mxCell>
        <mxCell id="zV4_AlX7Fqx7qcagxNKW-22" value="+ iniciarCorreioVoz(): void" style="text;strokeColor=none;fillColor=none;align=left;verticalAlign=top;spacingLeft=4;spacingRight=4;overflow=hidden;rotatable=0;points=[[0,0.5],[1,0.5]];portConstraint=eastwest;whiteSpace=wrap;html=1;" parent="zV4_AlX7Fqx7qcagxNKW-17" vertex="1">
          <mxGeometry y="120" width="190" height="30" as="geometry" />
        </mxCell>
        <mxCell id="zV4_AlX7Fqx7qcagxNKW-23" value="NavegadorInternet" style="swimlane;fontStyle=1;align=center;verticalAlign=top;childLayout=stackLayout;horizontal=1;startSize=26;horizontalStack=0;resizeParent=1;resizeParentMax=0;resizeLast=0;collapsible=1;marginBottom=0;whiteSpace=wrap;html=1;" parent="1" vertex="1">
          <mxGeometry x="610" y="400" width="210" height="124" as="geometry" />
        </mxCell>
        <mxCell id="zV4_AlX7Fqx7qcagxNKW-25" value="" style="line;strokeWidth=1;fillColor=none;align=left;verticalAlign=middle;spacingTop=-1;spacingLeft=3;spacingRight=3;rotatable=0;labelPosition=right;points=[];portConstraint=eastwest;strokeColor=inherit;" parent="zV4_AlX7Fqx7qcagxNKW-23" vertex="1">
          <mxGeometry y="26" width="210" height="8" as="geometry" />
        </mxCell>
        <mxCell id="zV4_AlX7Fqx7qcagxNKW-26" value="+ exibirPagina(String url): string" style="text;strokeColor=none;fillColor=none;align=left;verticalAlign=top;spacingLeft=4;spacingRight=4;overflow=hidden;rotatable=0;points=[[0,0.5],[1,0.5]];portConstraint=eastwest;whiteSpace=wrap;html=1;" parent="zV4_AlX7Fqx7qcagxNKW-23" vertex="1">
          <mxGeometry y="34" width="210" height="30" as="geometry" />
        </mxCell>
        <mxCell id="zV4_AlX7Fqx7qcagxNKW-27" value="+ adicionarNovaAba():void" style="text;strokeColor=none;fillColor=none;align=left;verticalAlign=top;spacingLeft=4;spacingRight=4;overflow=hidden;rotatable=0;points=[[0,0.5],[1,0.5]];portConstraint=eastwest;whiteSpace=wrap;html=1;" parent="zV4_AlX7Fqx7qcagxNKW-23" vertex="1">
          <mxGeometry y="64" width="210" height="30" as="geometry" />
        </mxCell>
        <mxCell id="zV4_AlX7Fqx7qcagxNKW-28" value="+ atualizarPagina():void" style="text;strokeColor=none;fillColor=none;align=left;verticalAlign=top;spacingLeft=4;spacingRight=4;overflow=hidden;rotatable=0;points=[[0,0.5],[1,0.5]];portConstraint=eastwest;whiteSpace=wrap;html=1;" parent="zV4_AlX7Fqx7qcagxNKW-23" vertex="1">
          <mxGeometry y="94" width="210" height="30" as="geometry" />
        </mxCell>
        <mxCell id="zV4_AlX7Fqx7qcagxNKW-29" value="Iphone" style="swimlane;fontStyle=1;align=center;verticalAlign=top;childLayout=stackLayout;horizontal=1;startSize=26;horizontalStack=0;resizeParent=1;resizeParentMax=0;resizeLast=0;collapsible=1;marginBottom=0;whiteSpace=wrap;html=1;" parent="1" vertex="1">
          <mxGeometry x="330" y="240" width="160" height="60" as="geometry" />
        </mxCell>
        <mxCell id="zV4_AlX7Fqx7qcagxNKW-31" value="" style="line;strokeWidth=1;fillColor=none;align=left;verticalAlign=middle;spacingTop=-1;spacingLeft=3;spacingRight=3;rotatable=0;labelPosition=right;points=[];portConstraint=eastwest;strokeColor=inherit;" parent="zV4_AlX7Fqx7qcagxNKW-29" vertex="1">
          <mxGeometry y="26" width="160" height="8" as="geometry" />
        </mxCell>
        <mxCell id="zV4_AlX7Fqx7qcagxNKW-32" value="+ method(type): type" style="text;strokeColor=none;fillColor=none;align=left;verticalAlign=top;spacingLeft=4;spacingRight=4;overflow=hidden;rotatable=0;points=[[0,0.5],[1,0.5]];portConstraint=eastwest;whiteSpace=wrap;html=1;" parent="zV4_AlX7Fqx7qcagxNKW-29" vertex="1">
          <mxGeometry y="34" width="160" height="26" as="geometry" />
        </mxCell>
        <mxCell id="xLpOuyUZto76V_XMGr0j-5" value="" style="endArrow=open;endSize=12;dashed=1;html=1;rounded=0;exitX=-0.012;exitY=0.115;exitDx=0;exitDy=0;exitPerimeter=0;entryX=0.5;entryY=0;entryDx=0;entryDy=0;" edge="1" parent="1" source="zV4_AlX7Fqx7qcagxNKW-32" target="zV4_AlX7Fqx7qcagxNKW-1">
          <mxGeometry x="-0.1155" y="-1" width="160" relative="1" as="geometry">
            <mxPoint x="90" y="410" as="sourcePoint" />
            <mxPoint x="250" y="410" as="targetPoint" />
            <Array as="points">
              <mxPoint x="130" y="277" />
            </Array>
            <mxPoint as="offset" />
          </mxGeometry>
        </mxCell>
        <mxCell id="xLpOuyUZto76V_XMGr0j-6" value="" style="endArrow=open;endSize=12;dashed=1;html=1;rounded=0;exitX=-0.012;exitY=0.115;exitDx=0;exitDy=0;exitPerimeter=0;entryX=0.463;entryY=-0.013;entryDx=0;entryDy=0;entryPerimeter=0;" edge="1" parent="1" target="zV4_AlX7Fqx7qcagxNKW-17">
          <mxGeometry width="160" relative="1" as="geometry">
            <mxPoint x="418" y="300" as="sourcePoint" />
            <mxPoint x="220" y="423" as="targetPoint" />
          </mxGeometry>
        </mxCell>
        <mxCell id="xLpOuyUZto76V_XMGr0j-7" value="" style="endArrow=open;endSize=12;dashed=1;html=1;rounded=0;exitX=1.006;exitY=-0.077;exitDx=0;exitDy=0;exitPerimeter=0;entryX=0.438;entryY=-0.027;entryDx=0;entryDy=0;entryPerimeter=0;" edge="1" parent="1" source="zV4_AlX7Fqx7qcagxNKW-32" target="zV4_AlX7Fqx7qcagxNKW-23">
          <mxGeometry x="0.003" width="160" relative="1" as="geometry">
            <mxPoint x="658" y="250" as="sourcePoint" />
            <mxPoint x="700" y="390" as="targetPoint" />
            <Array as="points">
              <mxPoint x="700" y="272" />
            </Array>
            <mxPoint as="offset" />
          </mxGeometry>
        </mxCell>
      </root>
    </mxGraphModel>
  </diagram>
</mxfile>
